HIERARCHY
ROOT hip
{
  OFFSET 0 0 0
  CHANNELS 6 Xposition Yposition Zposition Zrotation Yrotation Xrotation
  JOINT abdomen
  {
    OFFSET 0 20.6881 -0.73152
    CHANNELS 3 Zrotation Xrotation Yrotation
    JOINT chest
    {
      OFFSET 0 11.7043 -0.48768
      CHANNELS 3 Zrotation Xrotation Yrotation
      JOINT neck
      {
        OFFSET 0 22.1894 -2.19456
        CHANNELS 3 Zrotation Xrotation Yrotation
        JOINT head
        {
          OFFSET -0.24384 7.07133 1.2192
          CHANNELS 3 Zrotation Xrotation Yrotation
          JOINT leftEye
          {
            OFFSET 4.14528 8.04674 8.04672
            CHANNELS 3 Zrotation Xrotation Yrotation
            End Site
            {
              OFFSET 1 0 0
            }
          }
          JOINT rightEye
          {
            OFFSET -3.6576 8.04674 8.04672
            CHANNELS 3 Zrotation Xrotation Yrotation
            End Site
            {
              OFFSET 1 0 0
            }
          }
        }
      }
      JOINT rCollar
      {
        OFFSET -2.68224 19.2634 -4.8768
        CHANNELS 3 Zrotation Xrotation Yrotation
        JOINT rShldr
        {
          OFFSET -8.77824 -1.95073 1.46304
          CHANNELS 3 Zrotation Xrotation Yrotation
          JOINT rForeArm
          {
            OFFSET -28.1742 -1.7115 0.48768
            CHANNELS 3 Zrotation Xrotation Yrotation
            JOINT rHand
            {
              OFFSET -22.5879 0.773209 7.07136
              CHANNELS 3 Zrotation Xrotation Yrotation
              JOINT rThumb1
              {
                OFFSET -1.2192 -0.487915 3.41376
                CHANNELS 3 Zrotation Xrotation Yrotation
                JOINT rThumb2
                {
                  OFFSET -3.37035 -0.52449 3.41376
                  CHANNELS 3 Zrotation Xrotation Yrotation
                  End Site
                  {
                    OFFSET -1.78271 -1.18214 1.43049
                  }
                }
              }
              JOINT rIndex1
              {
                OFFSET -7.75947 0.938293 5.60832
                CHANNELS 3 Zrotation Xrotation Yrotation
                JOINT rIndex2
                {
                  OFFSET -2.54057 -0.884171 1.56538
                  CHANNELS 3 Zrotation Xrotation Yrotation
                  End Site
                  {
                    OFFSET -1.62519 -0.234802 1.16502
                  }
                }
              }
              JOINT rMid1
              {
                OFFSET -8.24714 1.18213 3.41376
                CHANNELS 3 Zrotation Xrotation Yrotation
                JOINT rMid2
                {
                  OFFSET -3.10165 -0.590103 1.0647
                  CHANNELS 3 Zrotation Xrotation Yrotation
                  End Site
                  {
                    OFFSET -2.48547 -0.328903 0.83742
                  }
                }
              }
              JOINT rRing1
              {
                OFFSET -8.82822 0.546677 1.51678
                CHANNELS 3 Zrotation Xrotation Yrotation
                JOINT rRing2
                {
                  OFFSET -2.60934 -0.819778 -0.0198488
                  CHANNELS 3 Zrotation Xrotation Yrotation
                  End Site
                  {
                    OFFSET -2.33842 -0.294052 0.168128
                  }
                }
              }
              JOINT rPinky1
              {
                OFFSET -8.27202 -0.0477905 -0.4584
                CHANNELS 3 Zrotation Xrotation Yrotation
                JOINT rPinky2
                {
                  OFFSET -1.82734 -0.647385 -0.700984
                  CHANNELS 3 Zrotation Xrotation Yrotation
                  End Site
                  {
                    OFFSET -1.69225 -0.51767 -0.607171
                  }
                }
              }
            }
          }
        }
      }
      JOINT lCollar
      {
        OFFSET 2.68224 19.2634 -4.8768
        CHANNELS 3 Zrotation Xrotation Yrotation
        JOINT lShldr
        {
          OFFSET 8.77824 -1.95073 1.46304
          CHANNELS 3 Zrotation Xrotation Yrotation
          JOINT lForeArm
          {
            OFFSET 28.1742 -1.7115 0.48768
            CHANNELS 3 Zrotation Xrotation Yrotation
            JOINT lHand
            {
              OFFSET 22.5879 0.773209 7.07136
              CHANNELS 3 Zrotation Xrotation Yrotation
              JOINT lThumb1
              {
                OFFSET 1.2192 -0.487915 3.41376
                CHANNELS 3 Zrotation Xrotation Yrotation
                JOINT lThumb2
                {
                  OFFSET 3.37035 -0.52449 3.41376
                  CHANNELS 3 Zrotation Xrotation Yrotation
                  End Site
                  {
                    OFFSET 1.78271 -1.18214 1.43049
                  }
                }
              }
              JOINT lIndex1
              {
                OFFSET 7.75947 0.938293 5.60832
                CHANNELS 3 Zrotation Xrotation Yrotation
                JOINT lIndex2
                {
                  OFFSET 2.54057 -0.884171 1.56538
                  CHANNELS 3 Zrotation Xrotation Yrotation
                  End Site
                  {
                    OFFSET 1.62519 -0.234802 1.16502
                  }
                }
              }
              JOINT lMid1
              {
                OFFSET 8.24714 1.18213 3.41376
                CHANNELS 3 Zrotation Xrotation Yrotation
                JOINT lMid2
                {
                  OFFSET 3.10165 -0.590103 1.0647
                  CHANNELS 3 Zrotation Xrotation Yrotation
                  End Site
                  {
                    OFFSET 2.48547 -0.328903 0.83742
                  }
                }
              }
              JOINT lRing1
              {
                OFFSET 8.82822 0.546677 1.51678
                CHANNELS 3 Zrotation Xrotation Yrotation
                JOINT lRing2
                {
                  OFFSET 2.60934 -0.819778 -0.0198488
                  CHANNELS 3 Zrotation Xrotation Yrotation
                  End Site
                  {
                    OFFSET 2.33842 -0.294052 0.168128
                  }
                }
              }
              JOINT lPinky1
              {
                OFFSET 8.27202 -0.0477905 -0.4584
                CHANNELS 3 Zrotation Xrotation Yrotation
                JOINT lPinky2
                {
                  OFFSET 1.82734 -0.647385 -0.700984
                  CHANNELS 3 Zrotation Xrotation Yrotation
                  End Site
                  {
                    OFFSET 1.69225 -0.51767 -0.607171
                  }
                }
              }
            }
          }
        }
      }
    }
  }
  JOINT rButtock
  {
    OFFSET -8.77824 4.35084 1.2192
    CHANNELS 3 Zrotation Xrotation Yrotation
    JOINT rThigh
    {
      OFFSET 0 -1.70687 -2.19456
      CHANNELS 3 Zrotation Xrotation Yrotation
      JOINT rShin
      {
        OFFSET 0 -36.8199 0.73152
        CHANNELS 3 Zrotation Xrotation Yrotation
        JOINT rFoot
        {
          OFFSET 0.73152 -45.1104 -5.12064
          CHANNELS 3 Zrotation Xrotation Yrotation
          End Site
          {
            OFFSET -1.1221 -3.69964 12.103
          }
        }
      }
    }
  }
  JOINT lButtock
  {
    OFFSET 8.77824 4.35084 1.2192
    CHANNELS 3 Zrotation Xrotation Yrotation
    JOINT lThigh
    {
      OFFSET 0 -1.70687 -2.19456
      CHANNELS 3 Zrotation Xrotation Yrotation
      JOINT lShin
      {
        OFFSET 0 -36.8199 0.73152
        CHANNELS 3 Zrotation Xrotation Yrotation
        JOINT lFoot
        {
          OFFSET -0.73152 -45.1104 -5.12064
          CHANNELS 3 Zrotation Xrotation Yrotation
          End Site
          {
            OFFSET 1.1221 -3.69964 12.103
          }
        }
      }
    }
  }
}
MOTION
Frames:	7
Frame Time:	0.00833333
9.19444 42.3713 10.1572 1.0384 -14.2328 8.3314 -7.84971 34.3175 -2.35586 2.13066 -15.8732 -1.43638 17.0263 7.03044 11.1635 -13.1436 -9.43608 17.8115 -0.0 0.0 0.0 -0.0 0.0 0.0 -2.1919e-13 6.42037e-14 6.03167e-13 39.2807 21.2731 42.8477 -21.315 -52.2595 110.919 -2.47528 -40.0647 -6.78664 -9.43726e-11 -5.10332e-10 -6.97318e-10 -1.47865e-10 -8.52644e-10 -1.20164e-09 -9.43711e-11 -5.10329e-10 -6.97326e-10 7.73091 5.47488 0.417314 -9.43739e-11 -5.1033e-10 -6.97319e-10 2.90554 0.965183 0.102902 -9.43639e-11 -5.10329e-10 -6.97315e-10 10.2786 0.731801 0.0259123 -9.43725e-11 -5.10329e-10 -6.9731e-10 2.22167 -0.733487 -0.20892 -2.1917e-13 6.42113e-14 6.02917e-13 -28.4756 11.8585 -70.9633 15.015 -56.3951 -125.275 0.359575 -16.8085 2.4332 4.41556e-09 2.87677e-09 -1.93666e-10 7.63427e-09 4.97241e-09 -2.70516e-10 4.41554e-09 2.87677e-09 -1.93652e-10 -7.73091 5.47488 -0.417314 4.41556e-09 2.87676e-09 -1.93663e-10 -2.90554 0.965183 -0.102902 4.41555e-09 2.87676e-09 -1.93665e-10 -10.2786 0.731801 -0.0259123 4.41557e-09 2.87677e-09 -1.93678e-10 -2.22167 -0.733487 0.20892 -2.03217e-16 0.0 -3.88251e-19 -100.011 -32.3258 -71.6897 -175.926 65.1191 174.693 20.503 -22.9057 31.368 2.03217e-16 0.0 3.88251e-19 124.096 -64.6648 120.952 175.405 71.9267 -175.608 0.651217 -11.7001 3.01655
9.15915 42.516 10.1244 0.8092 -14.6681 8.3394 -8.04418 34.3873 -2.2507 2.19327 -15.9043 -1.40688 17.1293 7.12034 11.2835 -13.1765 -9.71659 18.0216 -0.0 0.0 0.0 -0.0 0.0 0.0 -2.44915e-13 2.54448e-14 6.52212e-13 39.7889 22.2732 41.9215 -20.8053 -52.7006 112.222 -2.59455 -40.803 -6.96855 2.08703e-10 3.73608e-10 1.53484e-10 3.46227e-10 6.12368e-10 2.82642e-10 2.08704e-10 3.73609e-10 1.53478e-10 7.73091 5.47488 0.417314 2.08701e-10 3.73609e-10 1.53484e-10 2.90554 0.965183 0.102902 2.08712e-10 3.73609e-10 1.53487e-10 10.2786 0.731801 0.0259123 2.08701e-10 3.7361e-10 1.53494e-10 2.22167 -0.733487 -0.20892 -2.44857e-13 2.54444e-14 6.51964e-13 -28.5265 11.5491 -70.5764 15.0031 -56.4009 -125.299 0.362328 -16.8712 2.44282 5.01838e-09 3.04615e-09 -5.99948e-10 8.67942e-09 5.26204e-09 -9.67304e-10 5.01836e-09 3.04614e-09 -5.99935e-10 -7.73091 5.47488 -0.417314 5.01838e-09 3.04614e-09 -5.99945e-10 -2.90554 0.965183 -0.102902 5.01837e-09 3.04614e-09 -5.99948e-10 -10.2786 0.731801 -0.0259123 5.01839e-09 3.04614e-09 -5.99961e-10 -2.22167 -0.733487 0.20892 -2.03217e-16 0.0 -3.88251e-19 -99.5748 -32.2185 -71.8991 -175.884 65.474 174.645 20.7215 -22.8731 31.6948 2.03217e-16 0.0 3.88251e-19 123.783 -64.8581 120.168 175.393 72.0277 -175.618 0.806322 -11.7193 3.33331
9.11302 42.6569 10.0896 0.5781 -15.0043 8.3395 -8.14658 34.445 -2.10742 2.17177 -15.9286 -1.37295 17.2135 7.22131 11.3449 -13.1841 -10.0044 18.1263 -0.0 0.0 0.0 -0.0 0.0 0.0 -2.78182e-13 -5.76309e-15 6.77728e-13 40.3241 23.4745 41.009 -20.3099 -53.0983 113.457 -2.67913 -41.3062 -7.09536 4.31575e-10 9.70996e-10 7.23811e-10 7.10345e-10 1.59537e-09 1.27787e-09 4.31576e-10 9.70997e-10 7.23805e-10 7.73091 5.47488 0.417314 4.31574e-10 9.70997e-10 7.23812e-10 2.90554 0.965183 0.102902 4.31585e-10 9.70998e-10 7.23814e-10 10.2786 0.731801 0.0259123 4.31573e-10 9.70999e-10 7.23821e-10 2.22167 -0.733487 -0.20892 -2.78134e-13 -5.76603e-15 6.77479e-13 -28.5386 11.3176 -70.2595 15.0119 -56.3966 -125.281 0.36423 -16.9128 2.44923 5.39972e-09 3.19393e-09 -7.99028e-10 9.33994e-09 5.51602e-09 -1.30758e-09 5.39971e-09 3.19392e-09 -7.99017e-10 -7.73091 5.47488 -0.417314 5.39972e-09 3.19392e-09 -7.99025e-10 -2.90554 0.965183 -0.102902 5.39972e-09 3.19392e-09 -7.9903e-10 -10.2786 0.731801 -0.0259123 5.39973e-09 3.19392e-09 -7.99041e-10 -2.22167 -0.733487 0.20892 -2.03217e-16 0.0 -3.88251e-19 -99.0792 -32.1561 -71.9776 -175.841 65.8278 174.595 20.9825 -22.8155 32.0896 2.03217e-16 0.0 3.88251e-19 123.549 -65.0822 119.466 175.377 72.1449 -175.62 0.951122 -11.7193 3.63448
9.05689 42.7941 10.0503 0.3541 -15.2404 8.3327 -8.18921 34.4923 -1.92756 2.08864 -15.944 -1.33415 17.2789 7.3162 11.353 -13.1573 -10.2778 18.1338 -0.0 0.0 0.0 -0.0 0.0 0.0 -3.19435e-13 -3.81652e-14 6.88901e-13 40.8855 24.8468 40.1252 -19.8517 -53.4592 114.574 -2.73523 -41.6372 -7.17939 6.35658e-10 1.47641e-09 1.1983e-09 1.04468e-09 2.42195e-09 2.10605e-09 6.35659e-10 1.47641e-09 1.19829e-09 7.73091 5.47488 0.417314 6.35656e-10 1.47641e-09 1.1983e-09 2.90554 0.965183 0.102902 6.35668e-10 1.47642e-09 1.1983e-09 10.2786 0.731801 0.0259123 6.35653e-10 1.47642e-09 1.19831e-09 2.22167 -0.733487 -0.20892 -3.19427e-13 -3.81678e-14 6.88649e-13 -28.5177 11.1637 -69.9944 15.0418 -56.3822 -125.22 0.364793 -16.9246 2.45106 5.66339e-09 3.32813e-09 -8.92243e-10 9.79605e-09 5.74738e-09 -1.46587e-09 5.66338e-09 3.32813e-09 -8.92233e-10 -7.73091 5.47488 -0.417314 5.66339e-09 3.32813e-09 -8.9224e-10 -2.90554 0.965183 -0.102902 5.66338e-09 3.32813e-09 -8.92247e-10 -10.2786 0.731801 -0.0259123 5.6634e-09 3.32813e-09 -8.92257e-10 -2.22167 -0.733487 0.20892 -2.03217e-16 0.0 -3.88251e-19 -98.5519 -32.1067 -71.9687 -175.799 66.1654 174.546 21.2409 -22.7395 32.4922 2.03217e-16 0.0 3.88251e-19 123.364 -65.3405 118.829 175.357 72.2805 -175.613 1.08498 -11.7027 3.91889
8.99823 42.927 10.0066 0.1418 -15.3785 8.3216 -8.19885 34.5212 -1.70264 1.959 -15.9495 -1.288 17.3051 7.38697 11.3138 -13.0972 -10.5238 18.0563 -0.0 0.0 0.0 -0.0 0.0 0.0 -3.53629e-13 -7.0568e-14 6.84909e-13 41.4315 26.3073 39.3557 -19.4609 -53.7555 115.508 -2.75111 -41.7362 -7.20398 7.97185e-10 1.83166e-09 1.61495e-09 1.30772e-09 2.99199e-09 2.83239e-09 7.97187e-10 1.83166e-09 1.61494e-09 7.73091 5.47488 0.417314 7.97182e-10 1.83166e-09 1.61495e-09 2.90554 0.965183 0.102902 7.97196e-10 1.83167e-09 1.61495e-09 10.2786 0.731801 0.0259123 7.97178e-10 1.83167e-09 1.61496e-09 2.22167 -0.733487 -0.20892 -3.53667e-13 -7.05691e-14 6.84658e-13 -28.4674 11.0918 -69.7885 15.077 -56.3651 -125.147 0.36354 -16.8968 2.44677 5.80689e-09 3.40065e-09 -9.41973e-10 1.00441e-08 5.87233e-09 -1.55058e-09 5.80689e-09 3.40065e-09 -9.41963e-10 -7.73091 5.47488 -0.417314 5.80689e-09 3.40065e-09 -9.4197e-10 -2.90554 0.965183 -0.102902 5.80689e-09 3.40065e-09 -9.41979e-10 -10.2786 0.731801 -0.0259123 5.8069e-09 3.40066e-09 -9.41986e-10 -2.22167 -0.733487 0.20892 -2.03217e-16 0.0 -3.88251e-19 -98.0254 -32.0735 -71.8916 -175.758 66.4829 174.499 21.4913 -22.6553 32.8904 2.03217e-16 0.0 3.88251e-19 123.223 -65.6297 118.276 175.329 72.4428 -175.598 1.20683 -11.6779 4.18448
8.93257 43.0583 9.95662 -0.0423 -15.4234 8.3059 -8.20203 34.5236 -1.42428 1.79794 -15.9436 -1.23205 17.2712 7.41552 11.2333 -13.0042 -10.7287 17.9061 -0.0 0.0 0.0 -0.0 0.0 0.0 -3.65715e-13 -1.01778e-13 6.64935e-13 41.9072 27.7669 38.7862 -19.1712 -53.9607 116.19 -2.7164 -41.5435 -7.15364 8.92392e-10 1.97855e-09 2.01175e-09 1.45796e-09 3.20538e-09 3.52213e-09 8.92394e-10 1.97855e-09 2.01174e-09 7.73091 5.47488 0.417314 8.92389e-10 1.97855e-09 2.01175e-09 2.90554 0.965183 0.102902 8.92403e-10 1.97855e-09 2.01175e-09 10.2786 0.731801 0.0259123 8.92384e-10 1.97856e-09 2.01176e-09 2.22167 -0.733487 -0.20892 -3.65787e-13 -1.01778e-13 6.64686e-13 -28.3906 11.1058 -69.6505 15.1022 -56.3528 -125.095 0.360021 -16.8193 2.43486 5.82773e-09 3.36335e-09 -1.0106e-09 1.00803e-08 5.80704e-09 -1.67012e-09 5.82773e-09 3.36336e-09 -1.01059e-09 -7.73091 5.47488 -0.417314 5.82773e-09 3.36336e-09 -1.01059e-09 -2.90554 0.965183 -0.102902 5.82772e-09 3.36336e-09 -1.0106e-09 -10.2786 0.731801 -0.0259123 5.82773e-09 3.36336e-09 -1.01061e-09 -2.22167 -0.733487 0.20892 -2.03217e-16 0.0 -3.88251e-19 -97.5318 -32.0594 -71.7652 -175.719 66.7768 174.451 21.7289 -22.5728 33.2723 2.03217e-16 0.0 3.88251e-19 123.12 -65.947 117.829 175.293 72.6402 -175.571 1.31578 -11.6529 4.42926
8.86508 43.1901 9.89738 -0.1806 -15.3772 8.2873 -8.18532 34.4901 -1.08815 1.5911 -15.9249 -1.16624 17.1752 7.40391 11.1073 -12.8849 -10.8866 17.6747 -0.0 0.0 0.0 -0.0 0.0 0.0 -3.4931e-13 -1.39945e-13 6.31706e-13 42.3072 29.2652 38.3871 -18.9822 -54.0838 116.632 -2.62311 -40.9868 -7.01319 9.3056e-10 1.86828e-09 2.5051e-09 1.50789e-09 2.96642e-09 4.37715e-09 9.30563e-10 1.86828e-09 2.50509e-09 7.73091 5.47488 0.417314 9.30557e-10 1.86828e-09 2.50511e-09 2.90554 0.965183 0.102902 9.30571e-10 1.86828e-09 2.50511e-09 10.2786 0.731801 0.0259123 9.30553e-10 1.86828e-09 2.50512e-09 2.22167 -0.733487 -0.20892 -3.49401e-13 -1.39945e-13 6.31464e-13 -28.2832 11.2189 -69.5925 15.118 -56.3451 -125.063 0.353055 -16.6641 2.41102 5.82934e-09 3.2331e-09 -1.16649e-09 1.00843e-08 5.57992e-09 -1.9421e-09 5.82934e-09 3.2331e-09 -1.16648e-09 -7.73091 5.47488 -0.417314 5.82934e-09 3.23311e-09 -1.16648e-09 -2.90554 0.965183 -0.102902 5.82934e-09 3.23311e-09 -1.16649e-09 -10.2786 0.731801 -0.0259123 5.82934e-09 3.23311e-09 -1.1665e-09 -2.22167 -0.733487 0.20892 -2.03217e-16 0.0 -3.88251e-19 -97.0635 -32.0741 -71.5613 -175.679 67.0541 174.401 21.9937 -22.4773 33.6967 2.03217e-16 0.0 3.88251e-19 123.074 -66.2918 117.506 175.249 72.8685 -175.533 1.40742 -11.6282 4.64294
